<?xml version="1.0" encoding="utf-8"?>
<!-- Generator: Adobe Illustrator 24.0.0, SVG Export Plug-In . SVG Version: 6.00 Build 0)  -->
<svg version="1.1" id="Layer_1" xmlns="http://www.w3.org/2000/svg" xmlns:xlink="http://www.w3.org/1999/xlink" x="0px" y="0px"
	 viewBox="0 0 333.3 160" style="enable-background:new 0 0 333.3 160;" xml:space="preserve">
<style type="text/css">
	.st0{fill:#46509E;}
</style>
<g>
	<path class="st0" d="M22.4,120.3H0V0h22.4V120.3z"/>
	<path class="st0" d="M115.8,78.6c0,13.1-3.9,23.7-11.8,31.8c-7.9,8.1-18.1,12.2-30.7,12.2c-12.1,0-21.9-4-29.4-11.9
		c-7.5-7.9-11.3-18.2-11.3-30.8c0-12.7,4-23.2,11.9-31.4c7.9-8.2,18.1-12.3,30.5-12.3c12.1,0,21.9,4,29.5,11.9
		C112,56,115.8,66.2,115.8,78.6z M93.4,79.6c0-7.4-1.8-13.4-5.4-18c-3.6-4.6-8.3-6.9-14-6.9c-5.8,0-10.4,2.2-13.8,6.7
		C56.7,65.9,55,71.8,55,79.1c0,7.4,1.8,13.4,5.5,18c3.7,4.6,8.4,6.9,14.3,6.9c5.8,0,10.3-2.2,13.6-6.6C91.7,93,93.4,87,93.4,79.6z"
		/>
	<path class="st0" d="M200.4,119.2c0,7.2-0.4,12.4-1.2,15.5c-1.1,5.1-3.7,9.6-7.6,13.6c-7.2,7.2-17.3,10.8-30.2,10.8
		c-9.6,0-18.4-1.8-26.4-5.5c-4.7-2.2-8.1-4.4-10.3-6.6l9-14.6c9.5,5.4,17.9,8.1,25.3,8.1c8,0,13.5-2.2,16.5-6.6c2-3,3-7.4,3-13.3
		v-5.2c-5.8,3.3-12.1,5-19.1,5c-11.7,0-21-4.2-27.8-12.5c-6-7.5-9-16.8-9-27.8c0-12.4,4.1-22.8,12.2-31.2
		c8.1-8.4,18.7-12.6,31.7-12.6c11.2,0,22.5,2.9,34.1,8.6V119.2z M178.3,98.2V56.7c-3.9-1.7-8-2.5-12.3-2.5c-6,0-11,2.2-15,6.6
		c-4,4.4-6.1,10.5-6.1,18.1c0,7.3,1.9,13,5.7,17.2c3.8,4.2,8.4,6.2,13.8,6.2c3,0,6.1-0.6,9.5-1.8C176.2,99.6,177.7,98.8,178.3,98.2z
		"/>
</g>
<g>
	<path class="st0" d="M333.3,130.7H216.9V14.3h116.4V130.7z M223.5,124.1h103.2V20.9H223.5V124.1z"/>
</g>
<g>
	<path class="st0" d="M286.1,71.1c0,9-0.2,14.8-0.5,17.2c-0.7,5.3-2.5,9.3-5.4,12.3c-4.2,4.2-9.9,6.3-17.3,6.3
		c-7.3,0-13.1-2.2-17.5-6.5c-2.7-2.7-4.5-6.3-5.2-10.8c-0.4-2.4-0.6-7.2-0.6-14.5v-36h6.3v42.1c0,3.9,0.2,6.6,0.5,8.3
		c0.5,2.9,1.8,5.3,3.7,7.2c3.1,3.1,7.5,4.7,13.1,4.7c5.1,0,9.1-1.4,12-4.3c2.2-2.2,3.6-4.9,4.1-8.2c0.3-2.2,0.5-7,0.5-14.6V39.1h6.3
		V71.1z"/>
	<path class="st0" d="M304.7,105.6h-6.4V39.1h6.4V105.6z"/>
</g>
</svg>
